<svg xmlns="http://www.w3.org/2000/svg" viewBox="0 0 1342.03 1121.39"><defs><style>.cls-1,.cls-2{fill:none;}.cls-2{stroke:#6a979d;stroke-miterlimit:10;stroke-width:40px;}.cls-3{fill:#6a979d;}.cls-4{fill:#c4b082;}.cls-5{fill:#d5868d;}</style></defs><title>Asset 8</title><g id="Layer_2" data-name="Layer 2"><g id="Layer_1-2" data-name="Layer 1"><polygon class="cls-1" points="1094.63 333.58 1094.63 333.58 1094.63 333.58 1094.63 333.58"/><path class="cls-2" d="M617.73,20C287.61,20,20,258.58,20,552.89,20,707.66,94,847,212.21,944.37l-54.58,147.21,204.13-57c77.59,32.83,164.37,51.21,256,51.21,330.12,0,597.74-238.59,597.74-532.89S947.85,20,617.73,20Z"/><path class="cls-3" d="M938.31,460.12q-126.9,0-253.81,0c-39.86,0-81.57-5.33-120.41,7.36C547,473.1,531,481,515.17,490.31c-15,8.74-32.88,21.14-50.16,17.88-17.5-3.31-35-15.07-51.54-22.49-17.27-7.76-34.85-13.31-53.32-15.24-19.16-2-38.39.21-57.53-2.31-20.17-2.66-40.16-6.91-60.35-9.57-35.12-4.64-76.66-19.55-111.78-8.17-17.32,5.62-32,18.17-49.87,23.42-19.14,5.62-38.53,7.16-58.12,7.53L20,510.52C55,510,91.92,506,123.39,486.9c35.93-21.77,80.4-4.24,118.88.8,20.19,2.64,40.16,7,60.35,9.57,19.14,2.41,38.4.11,57.53,2.31,37.45,4.33,69.33,34.55,106,38.21C498,541,527.26,512.78,556,501c41.55-17,85.26-11.8,128.54-11.77q126.91.11,253.81,0C954.29,489.24,954.27,460.12,938.31,460.12Z"/><path class="cls-3" d="M991,266.71q-124.58,0-249.16,0c-39.13,0-80.08-5.34-118.21,7.35-16.82,5.6-32.45,13.54-48,22.81-14.7,8.74-32.28,21.15-49.24,17.88-17.18-3.31-34.38-15.07-50.6-22.49-16.95-7.76-34.21-13.31-52.35-15.23-18.8-2-37.68.2-56.47-2.32-19.8-2.66-39.43-6.9-59.24-9.57-34.48-4.64-75.26-19.55-109.74-8.16-17,5.61-31.38,18.16-49,23.41-18.79,5.62-37.82,7.16-57.06,7.53l-2.45,29.16c34.36-.52,70.6-4.55,101.5-23.62,35.27-21.76,78.93-4.24,116.71.8,19.81,2.64,39.42,7,59.24,9.57,18.79,2.41,37.69.11,56.47,2.32,36.77,4.32,68.07,34.54,104.1,38.2,31.21,3.17,60-25,88.14-36.75,40.79-17,83.69-11.81,126.19-11.77q124.57.09,249.16,0C1006.67,295.83,1006.65,266.71,991,266.71Z"/><path class="cls-3" d="M973.87,682.78q-109.05,0-218.09,0c-34.25,0-70.1-5.34-103.46,7.35-14.73,5.6-28.41,13.54-42.05,22.81-12.86,8.74-28.25,21.15-43.09,17.88-15-3.31-30.1-15.07-44.3-22.49-14.84-7.76-29.94-13.31-45.81-15.23-16.46-2-33,.2-49.44-2.32-17.32-2.66-34.51-6.9-51.85-9.57-30.18-4.64-65.87-19.55-96-8.16-14.88,5.61-27.46,18.16-42.85,23.41-16.45,5.62-33.11,7.16-49.94,7.53l-2.15,29.16c30.07-.52,61.8-4.55,88.84-23.62,30.87-21.76,69.08-4.24,102.15.8,17.34,2.64,34.51,7,51.85,9.57,16.45,2.41,33,.11,49.44,2.32,32.18,4.32,59.58,34.54,91.11,38.2,27.32,3.17,52.48-25,77.15-36.75,35.7-17,73.25-11.81,110.45-11.77q109.05.09,218.09,0C987.6,711.9,987.58,682.78,973.87,682.78Z"/><ellipse class="cls-3" cx="186" cy="718.37" rx="11.24" ry="14.78"/><rect class="cls-3" x="1100.58" y="246.39" width="90.18" height="434.51" transform="translate(486.79 -582.02) rotate(35.75)"/><polygon class="cls-4" points="970.75 706.61 1055.33 666.3 982.14 613.61 970.75 706.61"/><polygon points="970.75 706.61 981.91 701.29 972.25 694.34 970.75 706.61"/><path class="cls-5" d="M1266.28,227.22h57.33A16.43,16.43,0,0,1,1340,243.65v41.73a0,0,0,0,1,0,0h-90.18a0,0,0,0,1,0,0V243.65a16.43,16.43,0,0,1,16.43-16.43Z" transform="translate(393.78 -708.3) rotate(35.75)"/></g></g></svg>